<?xml version="1.0" encoding="UTF-8"?>
<svg id="Ebene_2" data-name="Ebene 2" xmlns="http://www.w3.org/2000/svg" viewBox="0 0 198.43 198.37">
  <defs>
    <style>
      .cls-1 {
        fill: #fff;
      }

      .cls-2 {
        fill: #1d1d1b;
      }
    </style>
  </defs>
  <g id="Ebene_1-2" data-name="Ebene 1">
    <path class="cls-2" d="m184.25,0H14.17C6.35,0,0,6.35,0,14.17v127.56c0,7.83,6.35,14.17,14.17,14.17h78.31l44.09,42.46,5.29-42.46h42.39c7.83,0,14.17-6.35,14.17-14.17V14.17c0-7.83-6.35-14.17-14.17-14.17Z"/>
    <g>
      <path class="cls-1" d="m106.69,35.51l-10.66,86.71h-31.46l3.9-31.59h-18.59l-3.77,31.59H14.65l10.66-86.71h31.46l-3.64,29.64h18.46l3.64-29.64h31.46Z"/>
      <path class="cls-1" d="m183.62,35.51l-3.38,27.3-14.95-.91-7.41,60.32h-31.85l7.41-60.32-14.95.91,3.25-27.3h61.88Z"/>
    </g>
  </g>
</svg>