<?xml version="1.0" encoding="utf-8"?>
<svg version="1.1" id="Ebene_1" xmlns="http://www.w3.org/2000/svg" xmlns:xlink="http://www.w3.org/1999/xlink" x="0px" y="0px"
	 viewBox="0 0 858.9 858.9" style="enable-background:new 0 0 858.9 858.9;" xml:space="preserve">
<style type="text/css">
	.st0{fill:#FFFFFF;}
	.st1{fill:#213A6A;}
	.st2{fill:#5FC4EA;}
</style>
<path class="st0" d="M851.33,830.56c0,11.95-9.77,21.72-21.72,21.72H27.15c-11.95,0-21.72-9.77-21.72-21.72V28.1
	c0-11.95,9.77-21.72,21.72-21.72h802.46c11.95,0,21.72,9.77,21.72,21.72V830.56z"/>
<path class="st1" d="M289.6,599.58c5.28,0,7.94,0.93,13.18,2.6v-19.01c-0.98-0.09-6.84-1-11.73-1c-7.88,0-17.87,1.9-25.55,11.15
		c-1.3,1.47-3.06,4.41-5.36,8.24l-0.97-18.12h-18.34c0.64,13.63,0.97,23.13,0.97,36.55c0,15.75-0.09,26.86-0.09,42.46v29.69h19.69
		v-53.21c0.69-10.31,1.17-23.95,11.77-33.23C280.24,599.58,287.18,599.58,289.6,599.58 M218.57,583.44h-19.12v108.72h19.12V583.44z
		 M156.44,638.51c0,2.73,0,13.51-6.28,23.34c-6.5,10.25-16.26,15.14-24.79,15.14c-7.31,0-14.83-3.17-19.95-7.97
		c-7.66-7.59-9.9-19.76-9.9-31.38c0.14-16.41,4.87-25.64,12.63-32.74c2.98-3,9.07-6.95,17.03-6.95c5.45,0,12.34,2.09,18.03,6.68
		C157.06,616.21,156.44,637.46,156.44,638.51 M166.19,722.59c8.1-10.7,8.74-21.8,9.32-44.58l-0.24-94.57h-18.2v16.8
		c-0.62-1-4.14-6.49-8.78-10.24c-4.82-4.24-13.78-8.88-26-8.68c-10.92,0-19.52,4.18-23.75,6.96c-7.06,4.66-10.76,9.46-12.78,12.46
		c-8.52,11.73-10.78,25.82-10.78,37.78c0,3,0,13.28,3.22,22.93c0.83,2.73,4.49,14.89,15.22,23.94c5.95,4.85,15.05,9.69,28.86,9.04
		c7.71-0.4,18.29-2.92,26-9.43c2.45-2.11,3.9-3.54,7.32-8.2l-0.15,14.92c-0.43,4.84-0.68,9.69-2.53,14.48
		c-0.97,2.98-2.64,5.71-4.88,8.24c-5.22,6.04-11.9,9.18-24.72,9.64c-12.59,0-22.93-2.98-27.66-4.62c-5.22-1.9-8.49-3.98-10.74-5.23
		l-2.03,18.93c3.06,1.23,5.31,2.07,8.58,3.18c5.22,1.66,16.67,4.59,30.62,4.59c15.03,0,24.59-3.43,31.08-6.96
		C160.35,729.77,163.75,725.98,166.19,722.59 M198.17,557.57h20.93v-21.46h-20.93V557.57z M389.51,636.75
		c0,11.88-3.69,29.28-18.29,37.52c-2.92,1.47-7.94,3.81-15.08,3.81c-1.6,0-7.51-0.21-13.16-2.95c-1.22-0.66-2.44-1.31-5.33-3.43
		c-2.96-2.23-7.06-6.71-10.33-14.28c-2.83-6.66-3.8-13.83-3.61-21.02c0.35-15.07,6.62-25.78,13.18-31.29
		c4.29-3.59,11.16-7.77,21.35-7.77c16.83,0.2,24.29,11.76,27.98,20.59C387.42,621.09,389.51,628.17,389.51,636.75 M393.76,680.18
		c12.57-12.67,16.18-29.89,15.99-43.79c-0.59-26.71-14.58-42.64-27.82-49.62c-4.62-2.28-12.56-5.21-23.69-5.21
		c-24.38,0-40.05,12.63-47.54,25.62c-5.33,9.27-7.27,19.99-7.56,30.93c-0.2,21.82,7.56,34.68,16.87,43.72
		c2.25,1.88,4.49,3.61,6.92,5.06c6.09,3.99,14.83,7.31,29.21,7.31c11.03,0,18.29-2.07,22.97-4.24
		C384,687.9,389.31,684.57,393.76,680.18 M473.93,693.81c13.04,0,20.09-2.92,26.18-5.64l-1.46-17.48
		c-3.76,1.65-12.34,5.85-22.67,5.85c-1.47,0-8.2,0-13.79-2.96c-16.49-8.15-20.54-24.76-20.54-37.13c0-18.27,9.17-28.83,18.42-33.89
		c8.39-4.7,15.91-4.43,18.93-4.43c7.71,0.39,13.8,3.13,16.88,4.65l1.01-17.68c-3.46-0.86-11.55-3.54-20.92-3.75
		c-21.75-0.65-35.35,9.45-43.31,19.91c-9.08,11.86-11.51,26.32-11.12,38.38c0.78,28.89,17.27,44.48,31.71,50.34
		C457.1,691.7,463.98,693.65,473.93,693.81 M577.32,643.17c0,7.17-0.64,11.35-1.65,14.69c-0.4,1.45-1.64,5.06-4.87,9.29
		c-6.31,8.58-14.6,11.52-22.38,11.52c-8.94,0-20.84-4.66-20.84-17.42c0-12.67,11.11-18.08,20.84-20.46
		c2.93-0.6,7.55-1.16,14.29-1.16c4.87,0,9.74,0.15,14.61,0.56V643.17z M578.46,692.14h16.61v-70.18c0-10.87-2.53-20.05-5.44-24.44
		c-5.67-9.49-18.06-16.17-35.13-16.17c-20.72,0-31.22,7.43-34.09,9.18v17.09c4.37-2.6,16.93-10.3,30.43-10.3
		c13.19,0,21.32,7.59,24.04,14.69c1.56,4.45,1.96,9.8,1.96,14.34c-5.03-0.25-10.39-0.45-15.61-0.45c-10.72,0-23.56,0.45-34.29,5.71
		c-8.33,3.99-19.74,11.71-19.74,29.13c0,11.92,5.55,20.65,10.97,25.24c6.1,5.17,14.28,7.17,22.59,7.68
		c12.4,0.36,20.81-3.43,26.19-7.22c4.62-3.52,7.45-6.91,11.51-11.55V692.14z M665.8,599.58c5.28,0,7.94,0.93,13.18,2.6v-19.01
		c-0.98-0.09-6.84-1-11.73-1c-7.88,0-17.87,1.9-25.55,11.15c-1.3,1.47-3.06,4.41-5.36,8.24l-0.97-18.12h-18.34
		c0.64,13.63,0.97,23.13,0.97,36.55c0,15.75-0.09,26.86-0.09,42.46v29.69h19.69v-53.21c0.69-10.31,1.17-23.95,11.77-33.23
		C656.44,599.58,663.38,599.58,665.8,599.58 M761.83,638.72c0,1.94-0.15,8.49-2.24,15.15c-5.08,15.36-16.58,23.75-29.4,23.75
		c-10.35,0-20.69-5.66-26.44-17.9c-3.18-6.85-4.43-14.69-4.01-22.25c0-2.72,0.15-9.05,2.83-16.76c7.08-20.2,23.13-22.17,28.45-22.17
		c12.35,0,23.69,8.29,28.58,23.31C760.42,625.04,762.07,630.9,761.83,638.72 M780.9,669.03c-0.58-21.01-0.58-35.96-0.58-57.08
		c0-26.34,0.44-52.7,0.58-79.01h-19.41v65.19c-2.81-3.7-3.85-4.8-6.14-6.92c-5.28-4.61-13.99-9.86-26.79-9.86
		c-3.75,0-20.92,0.23-34.33,14.9c-16.24,17.44-14.89,41.02-14.89,44.54c0.26,7.57,1.24,16.01,4.36,23.83
		c5.22,13.45,17.59,30.04,43.22,30.04c2.76,0,17.71,0,29.01-11.2c2.07-1.67,3.47-3.53,6.72-7.93l0.84,16.6h18.29
		C781.29,683.47,781.2,677.62,780.9,669.03"/>
<path class="st2" d="M482.21,120.21H374.55c-6.03,0-10.94,4.91-10.94,10.94v105.59h8.1V131.15c0-1.54,1.3-2.84,2.84-2.84h20.07
	v76.16h-21.09l30.22,32.27h49.27l30.22-32.27h-21.09v-76.16h20.07c1.54,0,2.84,1.3,2.84,2.84v105.59h8.1V131.15
	C493.14,125.12,488.24,120.21,482.21,120.21z"/>
<path class="st1" d="M404.65,368.5h47.47c3.16,0,5.59-2.58,5.4-5.73l-1.82-31.1c-0.18-3.15-2.92-5.73-6.07-5.73h-42.49
		c-3.16,0-5.89,2.58-6.07,5.73l-1.82,31.1C399.06,365.92,401.49,368.5,404.65,368.5z"/>
	<path class="st1" d="M384.35,325.94h-42.87c-3.16,0-6.25,2.53-6.87,5.63l-6.3,31.31c-0.62,3.09,1.45,5.63,4.61,5.63h47.79
		c3.16,0,5.96-2.57,6.23-5.72l2.66-31.12C389.87,328.51,387.51,325.94,384.35,325.94z"/>
	<path class="st1" d="M406.56,316.12h43.64c2.53,0,4.47-2.06,4.32-4.58l-1.45-24.88c-0.15-2.52-2.33-4.58-4.86-4.58h-39.66
		c-2.53,0-4.71,2.06-4.86,4.58l-1.45,24.88C402.09,314.06,404.04,316.12,406.56,316.12z"/>
	<path class="st1" d="M389.26,282.07h-40.1c-2.53,0-5,2.03-5.5,4.5l-5.04,25.04c-0.5,2.48,1.16,4.5,3.69,4.5h44.03
		c2.53,0,4.77-2.06,4.98-4.57l2.13-24.9C393.67,284.13,391.78,282.07,389.26,282.07z"/>
	<path class="st1" d="M514.34,316.12c2.53,0,4.18-2.03,3.68-4.5l-5.06-25.05c-0.5-2.47-2.98-4.5-5.5-4.5h-39.95
		c-2.53,0-4.41,2.06-4.2,4.57l2.13,24.9c0.22,2.52,2.46,4.57,4.98,4.57H514.34z"/>
	<path class="st1" d="M408.47,273.73h39.83c2.21,0,3.91-1.8,3.78-4.01l-1.12-19.21c-0.13-2.21-2.04-4.01-4.25-4.01h-36.65
		c-2.21,0-4.12,1.8-4.25,4.01l-1.12,19.21C404.55,271.92,406.26,273.73,408.47,273.73z"/>
	<path class="st1" d="M506.34,273.73c2.21,0,3.66-1.77,3.22-3.94l-3.91-19.36c-0.44-2.17-2.6-3.94-4.81-3.94h-36.95
		c-2.21,0-3.86,1.8-3.67,4l1.65,19.22c0.19,2.2,2.15,4,4.36,4L506.34,273.73L506.34,273.73z"/>
	<path class="st1" d="M392.87,246.5h-37.13c-2.21,0-4.37,1.77-4.81,3.94l-3.89,19.35c-0.43,2.17,1.02,3.94,3.23,3.94h40.28
		c2.21,0,4.17-1.8,4.36-4l1.65-19.22C396.74,248.3,395.08,246.5,392.87,246.5z"/>
	<path class="st1" d="M523.78,368.5c3.16,0,5.23-2.53,4.6-5.62l-6.33-31.31c-0.63-3.09-3.72-5.63-6.88-5.63h-42.77
		c-3.16,0-5.52,2.57-5.25,5.72l2.66,31.12c0.27,3.14,3.07,5.72,6.23,5.72L523.78,368.5L523.78,368.5z"/>
	<path class="st1" d="M451.64,380.05h-46.52c-3.79,0-7.07,3.09-7.29,6.87l-2.31,39.45c-0.22,3.78,2.7,6.87,6.48,6.87h52.74
		c3.79,0,6.71-3.09,6.49-6.87l-2.31-39.45C458.71,383.14,455.43,380.05,451.64,380.05z"/>
<path class="st1" d="M378.58,380.05h-46.83c-3.79,0-7.5,3.04-8.24,6.75l-7.99,39.7c-0.75,3.71,1.74,6.75,5.53,6.75h52.99
		c3.79,0,7.15-3.09,7.47-6.86l3.38-39.48C385.2,383.13,382.36,380.05,378.58,380.05z"/>
<path class="st1" d="M533.22,386.8c-0.75-3.71-4.46-6.75-8.25-6.75h-46.78c-3.79,0-6.62,3.09-6.3,6.86l3.38,39.48
		c0.32,3.77,3.69,6.86,7.47,6.86h52.99c3.79,0,6.27-3.04,5.52-6.75L533.22,386.8z"/>
<path class="st2" d="M831.63,13.99c6.67,0,12.09,5.04,12.09,11.71v806.88c0,6.67-5.42,12.09-12.09,12.09H25.11
	c-6.67,0-12.09-5.42-12.09-12.09V25.7c0-6.67,5.42-11.71,12.09-11.71H831.63z M831.25,4.66H25.52c-11.99,0-21.81,9.81-21.81,21.81
	v805.73c0,11.99,9.81,21.81,21.81,21.81h805.73c11.99,0,21.81-9.81,21.81-21.81V26.47C853.05,14.47,843.24,4.66,831.25,4.66
	L831.25,4.66z"/>
</svg>
