<?xml version="1.0" encoding="UTF-8"?>
<svg xmlns="http://www.w3.org/2000/svg" version="1.1" viewBox="0 0 858.9 858.9">
  <defs>
    <style>
      .cls-1 {
        fill: #fff;
      }

      .cls-2 {
        fill: #213a6a;
      }

      .cls-3 {
        fill: #5fc4ea;
      }
    </style>
  </defs>
  <g>
    <g id="Ebene_1">
      <path class="cls-1" d="M851.3,830.6c0,12-9.8,21.7-21.7,21.7H27.1c-11.9,0-21.7-9.8-21.7-21.7V28.1c0-11.9,9.8-21.7,21.7-21.7h802.5c12,0,21.7,9.8,21.7,21.7v802.5Z"/>
      <path class="cls-2" d="M289.6,599.6c5.3,0,7.9.9,13.2,2.6v-19c-1,0-6.8-1-11.7-1-7.9,0-17.9,1.9-25.5,11.2-1.3,1.5-3.1,4.4-5.4,8.2l-1-18.1h-18.3c.6,13.6,1,23.1,1,36.5s0,26.9,0,42.5v29.7h19.7v-53.2c.7-10.3,1.2-24,11.8-33.2,7.1-6.1,14-6.1,16.4-6.1M218.6,583.4h-19.1v108.7h19.1v-108.7ZM156.4,638.5c0,2.7,0,13.5-6.3,23.3-6.5,10.2-16.3,15.1-24.8,15.1s-14.8-3.2-20-8c-7.7-7.6-9.9-19.8-9.9-31.4.1-16.4,4.9-25.6,12.6-32.7,3-3,9.1-7,17-7s12.3,2.1,18,6.7c13.9,11.6,13.2,32.8,13.2,33.9M166.2,722.6c8.1-10.7,8.7-21.8,9.3-44.6l-.2-94.6h-18.2v16.8c-.6-1-4.1-6.5-8.8-10.2-4.8-4.2-13.8-8.9-26-8.7-10.9,0-19.5,4.2-23.8,7-7.1,4.7-10.8,9.5-12.8,12.5-8.5,11.7-10.8,25.8-10.8,37.8s0,13.3,3.2,22.9c.8,2.7,4.5,14.9,15.2,23.9,5.9,4.8,15.1,9.7,28.9,9,7.7-.4,18.3-2.9,26-9.4,2.4-2.1,3.9-3.5,7.3-8.2v14.9c-.6,4.8-.8,9.7-2.7,14.5-1,3-2.6,5.7-4.9,8.2-5.2,6-11.9,9.2-24.7,9.6-12.6,0-22.9-3-27.7-4.6-5.2-1.9-8.5-4-10.7-5.2l-2,18.9c3.1,1.2,5.3,2.1,8.6,3.2,5.2,1.7,16.7,4.6,30.6,4.6s24.6-3.4,31.1-7c7.2-4.2,10.6-8,13-11.4M198.2,557.6h20.9v-21.5h-20.9v21.5h0ZM389.5,636.8c0,11.9-3.7,29.3-18.3,37.5-2.9,1.5-7.9,3.8-15.1,3.8s-7.5-.2-13.2-3c-1.2-.7-2.4-1.3-5.3-3.4-3-2.2-7.1-6.7-10.3-14.3-2.8-6.7-3.8-13.8-3.6-21,.4-15.1,6.6-25.8,13.2-31.3,4.3-3.6,11.2-7.8,21.4-7.8,16.8.2,24.3,11.8,28,20.6,1.2,3.2,3.3,10.2,3.3,18.8M393.8,680.2c12.6-12.7,16.2-29.9,16-43.8-.6-26.7-14.6-42.6-27.8-49.6-4.6-2.3-12.6-5.2-23.7-5.2-24.4,0-40,12.6-47.5,25.6-5.3,9.3-7.3,20-7.6,30.9-.2,21.8,7.6,34.7,16.9,43.7,2.2,1.9,4.5,3.6,6.9,5.1,6.1,4,14.8,7.3,29.2,7.3s18.3-2.1,23-4.2c4.9-2.1,10.2-5.4,14.7-9.8M473.9,693.8c13,0,20.1-2.9,26.2-5.6l-1.5-17.5c-3.8,1.7-12.3,5.8-22.7,5.8s-8.2,0-13.8-3c-16.5-8.2-20.5-24.8-20.5-37.1,0-18.3,9.2-28.8,18.4-33.9,8.4-4.7,15.9-4.4,18.9-4.4,7.7.4,13.8,3.1,16.9,4.7l1-17.7c-3.5-.9-11.5-3.5-20.9-3.8-21.8-.7-35.4,9.5-43.3,19.9-9.1,11.9-11.5,26.3-11.1,38.4.8,28.9,17.3,44.5,31.7,50.3,3.9,1.7,10.7,3.7,20.7,3.8M577.3,643.2c0,7.2-.6,11.3-1.7,14.7-.4,1.5-1.6,5.1-4.9,9.3-6.3,8.6-14.6,11.5-22.4,11.5s-20.8-4.7-20.8-17.4,11.1-18.1,20.8-20.5c2.9-.6,7.5-1.2,14.3-1.2s9.7.2,14.6.6v3h0ZM578.5,692.1h16.6v-70.2c0-10.9-2.5-20-5.4-24.4-5.7-9.5-18.1-16.2-35.1-16.2s-31.2,7.4-34.1,9.2v17.1c4.4-2.6,16.9-10.3,30.4-10.3s21.3,7.6,24,14.7c1.6,4.5,2,9.8,2,14.3-5-.2-10.4-.5-15.6-.5-10.7,0-23.6.5-34.3,5.7-8.3,4-19.7,11.7-19.7,29.1s5.5,20.7,11,25.2c6.1,5.2,14.3,7.2,22.6,7.7,12.4.4,20.8-3.4,26.2-7.2,4.6-3.5,7.5-6.9,11.5-11.5v17.2ZM665.8,599.6c5.3,0,7.9.9,13.2,2.6v-19c-1,0-6.8-1-11.7-1-7.9,0-17.9,1.9-25.5,11.2-1.3,1.5-3.1,4.4-5.4,8.2l-1-18.1h-18.3c.6,13.6,1,23.1,1,36.5s0,26.9,0,42.5v29.7h19.7v-53.2c.7-10.3,1.2-24,11.8-33.2,7.1-6.1,14-6.1,16.4-6.1M761.8,638.7c0,1.9-.2,8.5-2.2,15.2-5.1,15.4-16.6,23.8-29.4,23.8s-20.7-5.7-26.4-17.9c-3.2-6.8-4.4-14.7-4-22.2,0-2.7.2-9,2.8-16.8,7.1-20.2,23.1-22.2,28.5-22.2,12.3,0,23.7,8.3,28.6,23.3.8,3.2,2.5,9.1,2.2,16.9M780.9,669c-.6-21-.6-36-.6-57.1s.4-52.7.6-79h-19.4v65.2c-2.8-3.7-3.8-4.8-6.1-6.9-5.3-4.6-14-9.9-26.8-9.9s-20.9.2-34.3,14.9c-16.2,17.4-14.9,41-14.9,44.5.3,7.6,1.2,16,4.4,23.8,5.2,13.5,17.6,30,43.2,30s17.7,0,29-11.2c2.1-1.7,3.5-3.5,6.7-7.9l.8,16.6h18.3c-.5-8.7-.6-14.5-.9-23.1"/>
      <path class="cls-3" d="M482.2,120.2h-107.7c-6,0-10.9,4.9-10.9,10.9v105.6h8.1v-105.6c0-1.5,1.3-2.8,2.8-2.8h20.1v76.2h-21.1l30.2,32.3h49.3l30.2-32.3h-21.1v-76.2h20.1c1.5,0,2.8,1.3,2.8,2.8v105.6h8.1v-105.6c0-6-4.9-10.9-11-10.9Z"/>
      <path class="cls-2" d="M404.6,368.5h47.5c3.2,0,5.6-2.6,5.4-5.7l-1.8-31.1c-.2-3.1-2.9-5.7-6.1-5.7h-42.5c-3.2,0-5.9,2.6-6.1,5.7l-1.8,31.1c-.2,3.2,2.2,5.7,5.4,5.7Z"/>
      <path class="cls-2" d="M384.4,325.9h-42.9c-3.2,0-6.2,2.5-6.9,5.6l-6.3,31.3c-.6,3.1,1.5,5.6,4.6,5.6h47.8c3.2,0,6-2.6,6.2-5.7l2.7-31.1c.3-3.2-2.1-5.7-5.3-5.7Z"/>
      <path class="cls-2" d="M406.6,316.1h43.6c2.5,0,4.5-2.1,4.3-4.6l-1.5-24.9c-.1-2.5-2.3-4.6-4.9-4.6h-39.7c-2.5,0-4.7,2.1-4.9,4.6l-1.5,24.9c-.2,2.5,1.8,4.6,4.3,4.6Z"/>
      <path class="cls-2" d="M389.3,282.1h-40.1c-2.5,0-5,2-5.5,4.5l-5,25c-.5,2.5,1.2,4.5,3.7,4.5h44c2.5,0,4.8-2.1,5-4.6l2.1-24.9c.2-2.5-1.7-4.6-4.2-4.6Z"/>
      <path class="cls-2" d="M514.3,316.1c2.5,0,4.2-2,3.7-4.5l-5.1-25c-.5-2.5-3-4.5-5.5-4.5h-40c-2.5,0-4.4,2.1-4.2,4.6l2.1,24.9c.2,2.5,2.5,4.6,5,4.6h43.9Z"/>
      <path class="cls-2" d="M408.5,273.7h39.8c2.2,0,3.9-1.8,3.8-4l-1.1-19.2c-.1-2.2-2-4-4.2-4h-36.6c-2.2,0-4.1,1.8-4.2,4l-1.1,19.2c-.1,2.2,1.6,4,3.8,4Z"/>
      <path class="cls-2" d="M506.3,273.7c2.2,0,3.7-1.8,3.2-3.9l-3.9-19.4c-.4-2.2-2.6-3.9-4.8-3.9h-37c-2.2,0-3.9,1.8-3.7,4l1.6,19.2c.2,2.2,2.1,4,4.4,4h40.1Z"/>
      <path class="cls-2" d="M392.9,246.5h-37.1c-2.2,0-4.4,1.8-4.8,3.9l-3.9,19.4c-.4,2.2,1,3.9,3.2,3.9h40.3c2.2,0,4.2-1.8,4.4-4l1.6-19.2c.2-2.2-1.5-4-3.7-4Z"/>
      <path class="cls-2" d="M523.8,368.5c3.2,0,5.2-2.5,4.6-5.6l-6.3-31.3c-.6-3.1-3.7-5.6-6.9-5.6h-42.8c-3.2,0-5.5,2.6-5.2,5.7l2.7,31.1c.3,3.1,3.1,5.7,6.2,5.7h47.7Z"/>
      <path class="cls-2" d="M451.6,380h-46.5c-3.8,0-7.1,3.1-7.3,6.9l-2.3,39.5c-.2,3.8,2.7,6.9,6.5,6.9h52.7c3.8,0,6.7-3.1,6.5-6.9l-2.3-39.5c-.2-3.8-3.5-6.9-7.3-6.9Z"/>
      <path class="cls-2" d="M378.6,380h-46.8c-3.8,0-7.5,3-8.2,6.8l-8,39.7c-.8,3.7,1.7,6.8,5.5,6.8h53c3.8,0,7.1-3.1,7.5-6.9l3.4-39.5c.3-3.8-2.5-6.9-6.3-6.9Z"/>
      <path class="cls-2" d="M533.2,386.8c-.8-3.7-4.5-6.8-8.2-6.8h-46.8c-3.8,0-6.6,3.1-6.3,6.9l3.4,39.5c.3,3.8,3.7,6.9,7.5,6.9h53c3.8,0,6.3-3,5.5-6.8l-8-39.7Z"/>
      <path class="cls-3" d="M831.6,14c6.7,0,12.1,5,12.1,11.7v806.9c0,6.7-5.4,12.1-12.1,12.1H25.1c-6.7,0-12.1-5.4-12.1-12.1V25.7c0-6.7,5.4-11.7,12.1-11.7,0,0,806.5,0,806.5,0ZM831.2,4.7H25.5C13.5,4.7,3.7,14.5,3.7,26.5v805.7c0,12,9.8,21.8,21.8,21.8h805.7c12,0,21.8-9.8,21.8-21.8V26.5c0-12-9.8-21.8-21.8-21.8h0Z"/>
    </g>
  </g>
</svg>