<?xml version="1.0" encoding="utf-8"?>
<!-- Generator: Adobe Illustrator 27.9.0, SVG Export Plug-In . SVG Version: 6.00 Build 0)  -->
<svg version="1.1" id="Ebene_1" xmlns="http://www.w3.org/2000/svg" xmlns:xlink="http://www.w3.org/1999/xlink" x="0px" y="0px"
	 viewBox="0 0 858.9 684" style="enable-background:new 0 0 858.9 684;" xml:space="preserve">
<style type="text/css">
	.st0{fill:#EB621D;}
	.st1{fill:#E41522;}
	.st2{fill:#F59E1F;}
</style>
<g>
	<g transform="translate(1565.7 -1106.8)">
		<g transform="matrix(3.1437 0 0 3.1437 -4835.7 -1027.6)">
			<g transform="matrix(1.25 0 0 -1.25 1102.5 727.74)">
				<path d="M-1.26-121.51c0,3.07,2.01,5.6,5.31,5.6c3.15,0,5.27-2.42,5.27-5.6s-2.12-5.6-5.27-5.6
					C0.75-127.11-1.26-124.59-1.26-121.51 M12.9-121.51v8.75H9.1v-2.12c-1.21,1.57-3.04,2.56-5.52,2.56c-4.9,0-8.75-3.84-8.75-9.18
					s3.84-9.18,8.75-9.18c2.49,0,4.32,0.99,5.52,2.56v-2.12h3.8C12.9-130.24,12.9-121.51,12.9-121.51z M141.41-121.51
					c0,3.07,2.01,5.6,5.31,5.6c3.15,0,5.27-2.42,5.27-5.6s-2.12-5.6-5.27-5.6C143.43-127.11,141.41-124.59,141.41-121.51
					 M155.58-121.51v15.77h-3.81v-9.15c-1.21,1.57-3.04,2.56-5.52,2.56c-4.9,0-8.75-3.84-8.75-9.18c0-5.34,3.84-9.18,8.75-9.18
					c2.49,0,4.32,0.99,5.52,2.56v-2.12h3.81V-121.51z M60.1-115.73c2.45,0,4.02-1.54,4.43-4.24h-9.08
					C55.86-117.45,57.39-115.73,60.1-115.73 M60.18-112.33c-5.13,0-8.71-3.73-8.71-9.18c0-5.56,3.73-9.18,8.97-9.18
					c2.63,0,5.05,0.66,7.17,2.45l-1.86,2.82c-1.47-1.17-3.33-1.83-5.09-1.83c-2.45,0-4.68,1.14-5.23,4.28h12.99
					c0.04,0.47,0.08,0.95,0.08,1.46C68.45-116.06,65.08-112.33,60.18-112.33 M106.1-121.51c0,3.07,2.01,5.6,5.31,5.6
					c3.15,0,5.27-2.42,5.27-5.6s-2.12-5.6-5.27-5.6C108.11-127.11,106.1-124.59,106.1-121.51 M120.26-121.51v8.75h-3.8v-2.12
					c-1.21,1.57-3.04,2.56-5.52,2.56c-4.9,0-8.75-3.84-8.75-9.18s3.84-9.18,8.75-9.18c2.49,0,4.31,0.99,5.52,2.56v-2.12h3.8V-121.51
					z M84.62-121.51c0-5.31,3.69-9.18,9.33-9.18c2.63,0,4.39,0.59,6.29,2.09l-1.83,3.07c-1.43-1.03-2.93-1.57-4.58-1.57
					c-3.04,0.04-5.27,2.23-5.27,5.6c0,3.37,2.23,5.56,5.27,5.6c1.65,0,3.15-0.55,4.58-1.57l1.83,3.07c-1.9,1.5-3.66,2.09-6.29,2.09
					C88.32-112.33,84.62-116.21,84.62-121.51 M133.65-112.33c-2.19,0-3.62-1.03-4.61-2.56v2.12h-3.77v-17.49h3.81v9.8
					c0,2.89,1.24,4.5,3.73,4.5c0.77,0,1.57-0.11,2.38-0.44l1.17,3.59C135.52-112.47,134.42-112.33,133.65-112.33 M31.71-114.16
					c-1.83,1.21-4.35,1.83-7.13,1.83c-4.43,0-7.28-2.12-7.28-5.6c0-2.85,2.12-4.61,6.04-5.16l1.8-0.26
					c2.09-0.29,3.07-0.84,3.07-1.83c0-1.35-1.39-2.12-3.99-2.12c-2.63,0-4.54,0.84-5.82,1.83l-1.79-2.96
					c2.09-1.54,4.72-2.27,7.57-2.27c5.05,0,7.98,2.38,7.98,5.71c0,3.07-2.3,4.68-6.11,5.23l-1.79,0.26
					c-1.65,0.22-2.97,0.54-2.97,1.72c0,1.28,1.24,2.05,3.33,2.05c2.23,0,4.39-0.84,5.45-1.5L31.71-114.16z M80.78-112.33
					c-2.19,0-3.62-1.03-4.61-2.56v2.12H72.4v-17.49h3.8v9.8c0,2.89,1.24,4.5,3.73,4.5c0.77,0,1.57-0.11,2.38-0.44l1.17,3.59
					C82.65-112.47,81.55-112.33,80.78-112.33 M48.32-112.77H42.1v5.31h-3.84v-5.31h-3.55v-3.48h3.55v-7.98
					c0-4.06,1.57-6.48,6.07-6.48c1.65,0,3.55,0.51,4.76,1.35l-1.1,3.26c-1.14-0.66-2.38-0.99-3.37-0.99c-1.9,0-2.52,1.17-2.52,2.93
					v7.9h6.22V-112.77z M-8.54-130.26v10.98c0,4.13-2.63,6.91-6.88,6.95c-2.23,0.04-4.54-0.66-6.15-3.11
					c-1.21,1.94-3.11,3.11-5.78,3.11c-1.87,0-3.69-0.55-5.12-2.6v2.16h-3.81v-17.49h3.84v9.7c0,3.04,1.68,4.65,4.28,4.65
					c2.53,0,3.8-1.65,3.8-4.61v-9.73h3.84v9.7c0,3.04,1.75,4.65,4.28,4.65c2.6,0,3.84-1.65,3.84-4.61v-9.73h3.86V-130.26z"/>
			</g>
			<path class="st0" d="M1212.8,830h-72.05V700.52h72.05V830z"/>
			<g transform="matrix(1.25 0 0 -1.25 1064.5 698.59)">
				<path class="st1" d="M64.7-53.33c0,21.01,9.84,39.73,25.16,51.79c-11.2,8.82-25.34,14.09-40.71,14.09
					c-36.38,0-65.87-29.49-65.87-65.88s29.49-65.88,65.87-65.88c15.37,0,29.51,5.26,40.71,14.09C74.53-93.06,64.7-74.34,64.7-53.33"
					/>
			</g>
			<g transform="matrix(1.25 0 0 -1.25 1103.8 698.59)">
				<path class="st2" d="M164.93-53.33c0-36.38-29.49-65.88-65.87-65.88c-15.37,0-29.51,5.26-40.71,14.09
					c15.32,12.06,25.16,30.78,25.16,51.79S73.68-13.6,58.35-1.54C69.56,7.28,83.7,12.55,99.07,12.55
					C135.45,12.55,164.93-16.95,164.93-53.33"/>
			</g>
		</g>
	</g>
</g>
</svg>
