<?xml version="1.0" encoding="utf-8"?>
<!-- Generator: Adobe Illustrator 27.9.0, SVG Export Plug-In . SVG Version: 6.00 Build 0)  -->
<svg version="1.1" id="svg10676" xmlns:svg="http://www.w3.org/2000/svg"
	 xmlns="http://www.w3.org/2000/svg" xmlns:xlink="http://www.w3.org/1999/xlink" x="0px" y="0px" viewBox="0 0 706 768"
	 style="enable-background:new 0 0 706 768;" xml:space="preserve">
<style type="text/css">
	.st0{fill:#FFFFFF;}
	.st1{fill:#0023A0;}
	.st2{fill:#FFA000;}
</style>
<path id="path10624" class="st0" d="M65.53,20.13c-24.9,0-45.48,20.17-45.48,45.04v637.64c0,24.88,20.58,45.04,45.48,45.04h575.21
	c24.93,0,45.04-20.15,45.04-45.04V65.17c0-24.86-20.1-45.04-45.04-45.04L65.53,20.13z"/>
<path id="path10168_00000182493703437624961190000015123220573225486213_" class="st1" d="M20.17,702.92
	c0,24.88,20.28,45.11,45.18,45.11h575.41c24.93,0,45.2-20.23,45.2-45.11h-2.94c0,23.26-18.94,42.2-42.25,42.2H65.35
	c-23.26,0-42.22-18.94-42.22-42.2V65.08c0-23.24,18.96-42.2,42.22-42.2h575.41c23.31,0,42.25,18.96,42.25,42.2v637.83h2.94V65.08
	c0-24.86-20.26-45.11-45.2-45.11H65.35c-24.9,0-45.18,20.24-45.18,45.11"/>
<path id="path10172" class="st1" d="M684.46,484.6v218.31c0,24.11-19.55,43.64-43.7,43.64H65.36c-24.15,0-43.66-19.53-43.66-43.64
	V484.6H684.46"/>
<path id="path10184" class="st0" d="M486.33,627.1v63.26h-21.71V627.1l-56.36-93.09l21.72-4.62l45.7,77.85l44.57-76.21h24.03
	L486.33,627.1L486.33,627.1z M348.23,556.19l-25.43,67.22h51.06L348.23,556.19L348.23,556.19z M399.93,691.99l-18.71-49.41h-65.78
	l-18.03,47.78h-21.97l62.37-160.04h21.72l61.43,157.05L399.93,691.99L399.93,691.99z M223.48,550.22h-19.39v56.31h17.98
	c21.76,0,34.67-9.01,34.67-28.84C256.74,559.44,245.22,550.22,223.48,550.22 M220.93,625.72h-16.84v64.64h-21.72V531.03h42.29
	c33.71,0,54.04,16.39,54.04,45.93C278.7,609.54,255.6,625.72,220.93,625.72"/>
<path id="path10188" class="st1" d="M437.94,82.01l-86.22,232.55l-8.35-47.21c-21.44-57.88-63.09-115.54-117.31-140.15l73.27,295.31
	l93.26-0.07L531.25,82.01L437.94,82.01"/>
<path id="path10192" class="st2" d="M275.65,81.91H137.64l-1.55,8.97c110.53,28.23,176.97,94.53,207.33,176.49l-27.84-156.69
	C310.27,89.09,294.85,82.64,275.65,81.91"/>
</svg>
