<?xml version="1.0" encoding="utf-8"?>
<!-- Generator: Adobe Illustrator 27.9.0, SVG Export Plug-In . SVG Version: 6.00 Build 0)  -->
<svg version="1.1" id="Ebene_1" xmlns="http://www.w3.org/2000/svg" xmlns:xlink="http://www.w3.org/1999/xlink" x="0px" y="0px"
	 viewBox="0 0 858.9 305" style="enable-background:new 0 0 858.9 305;" xml:space="preserve">
<style type="text/css">
	.st0{clip-path:url(#SVGID_00000158732608279275595960000007861692849290513838_);}
	.st1{fill:url(#path10283_00000050649614070753163810000001600996612592757915_);}
</style>
<g>
	<g>
		<g>
			<defs>
				<path id="SVGID_1_" d="M443.98,103.54c-0.48,38.05,33.91,59.28,59.81,71.9c26.62,12.95,35.56,21.26,35.46,32.84
					c-0.2,17.73-21.23,25.55-40.92,25.86c-34.34,0.53-54.3-9.27-70.18-16.69l-12.37,57.88c15.93,7.34,45.41,13.74,75.99,14.02
					c71.78,0,118.74-35.43,118.99-90.37c0.28-69.72-96.44-73.58-95.78-104.74c0.23-9.45,9.25-19.53,29.01-22.1
					c9.78-1.3,36.78-2.29,67.38,11.81l12.01-56c-16.46-5.99-37.62-11.73-63.95-11.73C491.88,16.22,444.36,52.13,443.98,103.54
					 M738.83,21.04c-13.11,0-24.15,7.64-29.08,19.38L607.21,285.24h71.73l14.27-39.44h87.65l8.28,39.44h63.22L797.2,21.04H738.83
					 M748.86,92.41l20.7,99.21h-56.69L748.86,92.41 M357.01,21.04l-56.54,264.2h68.35l56.51-264.2H357.01 M255.9,21.04
					l-71.14,179.82l-28.78-152.9c-3.38-17.07-16.71-26.92-31.52-26.92H8.16l-1.63,7.67c23.87,5.18,51,13.54,67.43,22.48
					C84.03,56.65,86.9,61.43,90.2,74.41l54.51,210.83h72.23l110.74-264.2L255.9,21.04"/>
			</defs>
			<clipPath id="SVGID_00000029728104075177563750000014381811763047034782_">
				<use xlink:href="#SVGID_1_"  style="overflow:visible;"/>
			</clipPath>
			<g id="g10269" style="clip-path:url(#SVGID_00000029728104075177563750000014381811763047034782_);">
				<g id="g10275" transform="translate(351.611,96.896)">
					
						<linearGradient id="path10283_00000029740511376710813690000008184302921685922746_" gradientUnits="userSpaceOnUse" x1="-461.4834" y1="872.5006" x2="-459.7849" y2="872.5006" gradientTransform="matrix(419.708 -154.5691 -154.5691 -419.708 328281.25 295047.9375)">
						<stop  offset="0" style="stop-color:#252756"/>
						<stop  offset="1" style="stop-color:#2B4D9C"/>
					</linearGradient>
					<path id="path10283" style="fill:url(#path10283_00000029740511376710813690000008184302921685922746_);" d="M-433.65-48.06
						l833.39-306.92l189.59,514.82l-833.38,306.92"/>
				</g>
			</g>
		</g>
	</g>
</g>
</svg>
