<?xml version="1.0" encoding="utf-8"?>
<!-- Generator: Adobe Illustrator 27.9.0, SVG Export Plug-In . SVG Version: 6.00 Build 0)  -->
<svg version="1.1" id="Ebene_1" xmlns="http://www.w3.org/2000/svg" xmlns:xlink="http://www.w3.org/1999/xlink" x="0px" y="0px"
	 viewBox="0 0 858.9 305" style="enable-background:new 0 0 858.9 305;" xml:space="preserve">
<g>
	<g>
		<defs>
			<path id="SVGID_1_" d="M442.89,103.01c-0.48,38.21,34.05,59.53,60.07,72.21c26.73,13.01,35.71,21.35,35.61,32.98
				c-0.2,17.8-21.32,25.66-41.09,25.97c-34.48,0.54-54.53-9.31-70.47-16.76l-12.42,58.13c15.99,7.37,45.61,13.8,76.31,14.08
				c72.08,0,119.24-35.58,119.5-90.75c0.28-70.01-96.85-73.89-96.18-105.19c0.23-9.49,9.28-19.61,29.13-22.19
				c9.82-1.3,36.93-2.3,67.67,11.86l12.06-56.24c-16.53-6.02-37.77-11.78-64.22-11.78C490.99,15.32,443.27,51.39,442.89,103.01
				 M738.99,20.17c-13.16,0-24.26,7.68-29.2,19.46L606.81,285.48h72.03l14.33-39.61h88.02l8.31,39.61H853L797.6,20.17H738.99
				 M749.06,91.84l20.79,99.63h-56.93L749.06,91.84 M355.55,20.17l-56.78,265.31h68.64l56.75-265.31H355.55 M254.01,20.17
				l-71.44,180.58L153.67,47.2c-3.39-17.14-16.78-27.04-31.65-27.04H5.23l-1.63,7.7c23.98,5.2,51.22,13.59,67.72,22.57
				c10.1,5.48,12.98,10.28,16.3,23.31l54.74,211.73h72.54L326.09,20.17L254.01,20.17"/>
		</defs>
		<use xlink:href="#SVGID_1_"  style="overflow:visible;fill:#FFFFFF;"/>
		<clipPath id="SVGID_00000110438280849438455290000003218043683623189647_">
			<use xlink:href="#SVGID_1_"  style="overflow:visible;"/>
		</clipPath>
	</g>
</g>
</svg>
