<?xml version="1.0" encoding="UTF-8"?>
<svg id="Ebene_2" data-name="Ebene 2" xmlns="http://www.w3.org/2000/svg" viewBox="0 0 218.22 221.81">
  <defs>
    <style>
      .cls-1 {
        fill: #fff;
      }

      .cls-2 {
        fill: #1d1d1b;
      }
    </style>
  </defs>
  <g id="Ebene_2-2" data-name="Ebene 2">
    <path class="cls-2" d="m204.04,0H14.17C6.35,0,0,6.35,0,14.17v154.26c0,7.83,6.35,14.17,14.17,14.17h91.59l40.71,39.2,4.88-39.2h52.69c7.83,0,14.17-6.35,14.17-14.17V14.17c0-7.83-6.35-14.17-14.17-14.17Z"/>
  </g>
  <g id="Ebene_1-2" data-name="Ebene 1">
    <g>
      <path class="cls-1" d="m73.3,26.01l-5.91,48.03h-17.42l2.16-17.5h-10.3l-2.09,17.5h-17.42l5.9-48.03h17.43l-2.02,16.42h10.22l2.02-16.42h17.43Z"/>
      <polygon class="cls-1" points="112.75 38.53 114.27 26.01 82.73 26.01 76.82 74.03 108.94 74.03 110.52 61.15 95.83 61.15 96.48 55.67 109.44 55.67 110.88 43.79 97.92 43.79 98.57 38.53 112.75 38.53"/>
      <polygon class="cls-1" points="123.65 26.01 115.94 88.78 133.58 88.78 141.29 26.01 123.65 26.01"/>
      <path class="cls-1" d="m55.74,105.37l-1.87,15.12-8.28-.5-4.1,33.41h-17.64l4.1-33.41-8.28.5,1.8-15.12h34.28Z"/>
      <path class="cls-1" d="m108.63,128.98c0,14.54-11.3,25.63-26.28,25.63s-26.86-10.66-26.86-24.55,11.67-25.85,26.5-25.85c6.91,0,13.61,2.38,18.65,6.62,5.26,4.32,7.99,10.58,7.99,18.15Zm-17.57.29c0-5.11-3.67-9.14-8.5-9.14-5.26,0-9.5,4.54-9.5,10.08s3.6,9.29,8.5,9.29c5.47,0,9.5-4.39,9.5-10.23Z"/>
      <path class="cls-1" d="m147.58,105.37l-1.87,15.12-8.28-.5-4.1,33.41h-17.64l4.1-33.41-8.28.5,1.8-15.12h34.28Z"/>
      <path class="cls-1" d="m200.47,128.98c0,14.54-11.3,25.63-26.28,25.63s-26.86-10.66-26.86-24.55,11.67-25.85,26.5-25.85c6.91,0,13.61,2.38,18.65,6.62,5.26,4.32,7.99,10.58,7.99,18.15Zm-17.57.29c0-5.11-3.67-9.14-8.5-9.14-5.26,0-9.5,4.54-9.5,10.08s3.6,9.29,8.5,9.29c5.47,0,9.5-4.39,9.5-10.23Z"/>
    </g>
  </g>
</svg>