<?xml version="1.0" encoding="UTF-8"?>
<svg xmlns="http://www.w3.org/2000/svg" version="1.1" viewBox="0 0 652 652">
  <defs>
    <style>
      .cls-1 {
        fill-rule: evenodd;
      }

      .cls-1, .cls-2 {
        fill: #463a1b;
      }

      .cls-3 {
        fill: #f5bd31;
      }
    </style>
  </defs>
  <g>
    <g id="layer">
      <g>
        <path class="cls-3" d="M647.8,325.9c0,178.4-144.5,322.9-322.9,322.9S2,504.2,2,325.9,146.5,3,324.9,3s322.9,144.7,322.9,322.9"/>
        <path class="cls-2" d="M123.2,408.7c6.7,4.1,12,10,16,16.8,8.6,14.5,5.4,30.6-9.4,39.5-14.8,8.9-30.6,4-39.3-10.5-4.4-7.4-6.6-14.9-5-22l12.1,2.6c-1.3,4.5-.8,8.6,2.3,13.8,5.2,8.6,14.8,10.7,23.5,5.5s11.5-14.6,6.3-23.2c-2.7-4.4-5.8-7-8-8.3l-7.5,4.5,4.9,8.3-9.4,5.5-10.8-18.1,24.3-14.6"/>
        <polygon class="cls-2" points="66.2 400.3 63.2 388.8 104.8 378 99.3 356.7 110 354 118.5 386.8 66.2 400.3"/>
        <path class="cls-2" d="M88.8,291.6c12.8.3,22,8.3,21.7,23.2-.4,15-9.9,22.6-22.7,22.2l-33.2-.8.3-11.9,32.7.8c6.6.1,11.8-4.3,11.9-10.6.1-6.2-4.8-11-11.4-11.1l-32.7-.8.3-11.9,33.2.8"/>
        <polygon class="cls-2" points="75.4 247.3 70.7 262 60.6 258.8 73.6 218.1 83.5 221.2 79 235.9 120.3 248.9 116.8 260.3 75.4 247.3"/>
        <polygon class="cls-2" points="87.6 191.1 107.3 160.2 116.6 166 103.3 186.9 111.7 192.4 124.3 172.6 133.6 178.5 121 198.3 130.3 204.2 144.3 182.2 153.5 188.1 133.1 220.1 87.6 191.1"/>
        <polygon class="cls-2" points="131.7 130.6 144.1 120.3 185.8 134.5 185.8 134.4 161.8 105.6 170.9 97.9 205.6 139.4 193.6 149.4 150.9 134.9 150.8 135 175.5 164.5 166.3 172.1 131.7 130.6"/>
        <polygon class="cls-2" points="242.5 64.1 277.6 55.4 280.2 66 256.6 71.8 259.3 82.6 281.1 77.1 283.7 87.9 261.9 93.2 266.9 113.6 255.3 116.4 242.5 64.1"/>
        <path class="cls-2" d="M310.5,50.4l20.9.7c11,.4,20.3,4.4,19.9,16.9-.3,7.5-4.4,13.3-12.1,14.5l13,23.2-14.2-.4-10.6-22h-5.8c0-.1-.6,21.4-.6,21.4l-11.9-.4,1.4-54M321.7,73l7,.3c4.4.1,10,.1,10.2-5.7.1-5.4-4.6-6.3-9-6.5l-7.8-.3-.4,12.1Z"/>
        <polygon class="cls-2" points="386.7 60 421.7 70.9 418.3 81.5 394.7 74 391.7 83.6 414 90.7 410.7 101.2 388.5 94.1 385.1 104.5 410 112.4 406.8 122.9 370.5 111.5 386.7 60"/>
        <polygon class="cls-2" points="454.6 87.1 485.3 107.1 479.3 116.3 458.6 102.7 453 111.2 472.7 124 466.6 133.2 447.1 120.4 441 129.6 463 143.9 456.9 153.1 425.1 132.3 454.6 87.1"/>
        <g>
          <path class="cls-2" d="M382.5,255.1c-3.8,0-6.9-2.4-6.9-5.3v-63.1c0-2.9,3.1-5.3,6.9-5.3s6.9,2.4,6.9,5.3v63.1c0,2.9-3.1,5.3-6.9,5.3M267.4,255.1c-3.8,0-6.9-2.4-6.9-5.3v-63.1c0-2.9,3.1-5.3,6.9-5.3s6.9,2.4,6.9,5.3v63.1c0,2.9-3.1,5.3-6.9,5.3M324.8,219c-3.8,0-6.9-2.4-6.9-5.3v-63c0-2.9,3.1-5.3,6.9-5.3s6.9,2.4,6.9,5.3v63c0,2.9-3.1,5.3-6.9,5.3"/>
          <g>
            <path class="cls-1" d="M264.9,307c-.4,12.6-3.5,12.9,0,37.6.8,5.6,3.1,10,6.5,13.4l37.8-37.8c-11.4-6.7-27.6-4.4-44.3-13.2Z"/>
            <path class="cls-1" d="M324.9,372.2c-.4-6.2-.5-14.1-1.5-22l-19.8,19.8c7.2,1,14.6,1.5,21.2,2.2Z"/>
          </g>
          <g>
            <path class="cls-1" d="M324.9,372.2c23.5-2.5,56.5-3,60.1-27.7,3.5-24.7.4-25,0-37.6-9.2,4.9-18.5,6.7-26.8,8.6l-31.5,31.5c-1.2,8.7-1.2,18-1.7,25.2Z"/>
            <path class="cls-1" d="M325.1,234.9c-7.4,3.7-37.2,27.8-38,40.4-1,12.4,5.9,31.8,11.5,32.9,3.2.7,10.6,3.1,16.8,5.7l44.9-44.9c-7.3-12.4-29.5-30.6-35.2-34.2Z"/>
          </g>
          <g>
            <path class="cls-1" d="M522.8,128.6l-11.1-11-151.4,151.4c.8,1.4,1.4,2.7,1.8,3.9,4.2,12-4.1,34.8-13,35.5-8.9.7-23.5,7.8-24.2,11-1.4-1.6-5.2-3.6-9.6-5.5l-6.2,6.2c1.3.8,2.6,1.7,3.8,2.8,6.6,5.9,9.3,16.6,10.6,27.3l3.1-3.1c1.3-9,3.8-17.4,9.6-22.6,5.7-5.1,13.4-7,21.9-8.9l153.4-153.4c85.8,97.1,82.1,246.1-10.7,338.9-46.8,46.9-109,72.6-175.1,72.6s-118.6-21.8-163.8-61.9l103.6-103.6c-.3-1-.5-2-.6-3-3.5-24.7-.4-25,0-37.6,11.5,6.1,22.7,6.9,32.3,9l6.5-6.5c-12.7-1.7-25-4.7-32.3-12.1l-154.1,154.1,11.1,11c52.7,52.7,122.7,81.8,197.2,81.8s144.5-28.9,197.1-81.8c108.8-108.8,108.9-285.7.1-394.5Z"/>
            <path class="cls-1" d="M324.9,432.9c-.9-14.6-.6-39-12-49.2-4.4-4-9.7-5.8-15.8-7.1l-31.6,31.6c5.7,21.8,37,22.4,59.4,24.7Z"/>
          </g>
          <path class="cls-1" d="M385,367.6c.4,12.6,3.5,12.9,0,37.6-3.5,24.7-36.6,25.3-60.1,27.7,1-14.6-.1-37.5,11.3-47.8,11.3-10.2,30.1-7.6,48.8-17.5"/>
          <path class="cls-1" d="M264.9,427.5c-.4,12.6-3.5,12.9,0,37.6,3.5,24.7,36.6,25.2,60.1,27.7-.9-14.6-.6-39-12-49.3-11.3-10.2-29.4-6.1-48.1-16"/>
          <path class="cls-1" d="M385,427.5c.4,12.6,3.5,12.9,0,37.6-3.5,24.7-36.6,25.2-60.1,27.7,1-14.6-.1-37.5,11.3-47.8,11.3-10.3,30.1-7.6,48.8-17.5"/>
        </g>
        <path class="cls-2" d="M324.9,562.6c-3.6,0-6.5-1.9-6.5-4.1v-51.3c0-2.3,3-4.1,6.5-4.1s6.5,1.9,6.5,4.1v51.3c0,2.3-2.9,4.1-6.5,4.1"/>
      </g>
    </g>
  </g>
</svg>