<?xml version="1.0" encoding="utf-8"?>
<!-- Generator: Adobe Illustrator 27.9.0, SVG Export Plug-In . SVG Version: 6.00 Build 0)  -->
<svg version="1.1" id="layer" xmlns="http://www.w3.org/2000/svg" xmlns:xlink="http://www.w3.org/1999/xlink" x="0px" y="0px"
	 viewBox="0 0 652 652" style="enable-background:new 0 0 652 652;" xml:space="preserve">
<style type="text/css">
	.st0{fill:#F5BD31;}
	.st1{fill:#463A1B;}
	.st2{fill-rule:evenodd;clip-rule:evenodd;fill:#463A1B;}
</style>
<g>
	<path class="st0" d="M647.84,325.92c0,178.38-144.54,322.92-322.92,322.92S2,504.17,2,325.92C2,147.54,146.54,3,324.92,3
		C503.3,3,647.84,147.67,647.84,325.92"/>
	<path class="st1" d="M123.16,408.71c6.72,4.13,12.01,9.95,16.02,16.79c8.65,14.47,5.43,30.61-9.43,39.53
		c-14.85,8.91-30.61,4-39.27-10.46c-4.39-7.36-6.59-14.85-5.04-21.96l12.14,2.58c-1.29,4.52-0.78,8.65,2.33,13.82
		c5.17,8.65,14.85,10.72,23.51,5.55s11.5-14.6,6.33-23.25c-2.71-4.39-5.81-6.98-8.01-8.27l-7.49,4.52l4.91,8.27l-9.43,5.55
		l-10.85-18.08L123.16,408.71"/>
	<polygon class="st1" points="66.2,400.32 63.23,388.82 104.82,377.97 99.26,356.66 109.98,353.95 118.51,386.76 	"/>
	<path class="st1" d="M88.8,291.56c12.79,0.26,21.96,8.27,21.7,23.25c-0.39,14.98-9.95,22.6-22.73,22.22l-33.2-0.78l0.26-11.88
		l32.68,0.77c6.59,0.13,11.75-4.26,11.88-10.59c0.13-6.2-4.78-10.98-11.37-11.11l-32.68-0.77l0.26-11.88L88.8,291.56"/>
	<polygon class="st1" points="75.37,247.26 70.72,261.98 60.64,258.75 73.56,218.06 83.5,221.16 78.98,235.89 120.32,248.93 
		116.83,260.3 	"/>
	<polygon class="st1" points="87.64,191.07 107.27,160.2 116.57,166.01 103.27,186.93 111.66,192.36 124.32,172.6 133.62,178.54 
		120.96,198.3 130.26,204.24 144.34,182.16 153.51,188.1 133.1,220.13 	"/>
	<polygon class="st1" points="131.68,130.62 144.08,120.28 185.81,134.49 185.81,134.36 161.78,105.56 170.95,97.94 205.57,139.4 
		193.56,149.35 150.93,134.88 150.8,135.01 175.47,164.46 166.3,172.08 	"/>
	<polygon class="st1" points="242.51,64.1 277.64,55.44 280.23,66.03 256.59,71.85 259.3,82.57 281.13,77.14 283.71,87.86 
		261.88,93.16 266.92,113.57 255.3,116.41 	"/>
	<path class="st1" d="M310.45,50.4l20.93,0.65c10.98,0.39,20.28,4.39,19.89,16.92c-0.26,7.49-4.39,13.3-12.14,14.47l13.05,23.25
		l-14.21-0.39l-10.59-21.96l-5.81-0.13l-0.65,21.57l-11.88-0.39L310.45,50.4 M321.69,73.01l6.98,0.26c4.39,0.13,9.95,0.13,10.2-5.68
		c0.13-5.43-4.65-6.33-9.04-6.46l-7.75-0.26L321.69,73.01z"/>
	<polygon class="st1" points="386.66,59.96 421.66,70.94 418.31,81.53 394.67,74.04 391.7,83.6 414.04,90.7 410.69,101.17 
		388.47,94.06 385.11,104.53 410.04,112.4 406.81,122.87 370.51,111.5 	"/>
	<polygon class="st1" points="454.6,87.09 485.34,107.11 479.27,116.28 458.61,102.72 453.05,111.24 472.69,124.03 466.61,133.2 
		447.11,120.41 441.04,129.58 463,143.92 456.93,153.09 425.15,132.3 	"/>
	<g>
		<path class="st1" d="M382.45,255.1c-3.82,0-6.93-2.39-6.93-5.32v-63.14c0-2.93,3.11-5.32,6.93-5.32c3.82,0,6.93,2.39,6.93,5.32
			v63.14C389.37,252.71,386.26,255.1,382.45,255.1 M267.39,255.1c-3.82,0-6.93-2.39-6.93-5.32v-63.14c0-2.93,3.11-5.32,6.93-5.32
			c3.82,0,6.93,2.39,6.93,5.32v63.14C274.32,252.71,271.21,255.1,267.39,255.1 M324.78,219.02c-3.82,0-6.93-2.39-6.93-5.32v-63.03
			c0-2.93,3.11-5.32,6.93-5.32c3.82,0,6.93,2.39,6.93,5.32v63.03C331.7,216.63,328.59,219.02,324.78,219.02"/>
		<g>
			<path class="st2" d="M264.85,306.95c-0.42,12.58-3.53,12.86,0,37.6c0.8,5.6,3.13,9.95,6.51,13.37l37.76-37.76
				C297.77,313.46,281.54,315.8,264.85,306.95z"/>
			<path class="st2" d="M324.92,372.25c-0.36-6.17-0.52-14.12-1.45-22.02l-19.78,19.78C310.94,370.99,318.31,371.54,324.92,372.25z"
				/>
		</g>
		<g>
			<path class="st2" d="M324.92,372.25c23.46-2.54,56.54-2.97,60.07-27.7c3.53-24.74,0.42-25.02,0-37.6
				c-9.22,4.89-18.47,6.74-26.83,8.59l-31.55,31.55C325.38,355.83,325.41,365.06,324.92,372.25z"/>
			<path class="st2" d="M325.06,234.86c-7.35,3.68-37.17,27.85-38.02,40.43c-0.99,12.44,5.94,31.8,11.45,32.93
				c3.23,0.66,10.62,3.07,16.84,5.71l44.92-44.92C352.93,256.57,330.79,238.43,325.06,234.86z"/>
		</g>
		<g>
			<path class="st2" d="M522.8,128.55l-11.11-10.98L360.25,269.02c0.8,1.37,1.44,2.67,1.84,3.87c4.24,12.01-4.1,34.77-13,35.48
				c-8.9,0.71-23.46,7.77-24.17,11.03c-1.35-1.58-5.18-3.58-9.59-5.45l-6.22,6.22c1.33,0.79,2.6,1.69,3.8,2.77
				c6.6,5.94,9.29,16.58,10.56,27.31l3.14-3.14c1.26-8.95,3.83-17.39,9.62-22.61c5.72-5.15,13.36-7.04,21.93-8.94l153.41-153.41
				c85.77,97.13,82.15,246.06-10.72,338.94c-46.76,46.89-109.02,72.59-175.15,72.59c-60.97,0-118.58-21.83-163.78-61.87
				l103.57-103.57c-0.26-0.97-0.48-1.97-0.63-3.03c-3.53-24.74-0.42-25.02,0-37.6c11.46,6.08,22.7,6.88,32.29,8.98l6.55-6.55
				c-12.68-1.7-25-4.69-32.33-12.1L117.22,512.05l11.11,10.98c52.7,52.7,122.71,81.76,197.24,81.76s144.54-28.93,197.11-81.76
				C631.43,414.27,631.56,237.31,522.8,128.55z"/>
			<path class="st2" d="M324.92,432.89c-0.85-14.56-0.57-39.01-12.01-49.19c-4.36-3.98-9.74-5.82-15.77-7.14l-31.65,31.65
				C271.22,429.96,302.46,430.59,324.92,432.89z"/>
		</g>
		<path class="st2" d="M384.99,367.59c0.42,12.58,3.53,12.86,0,37.6c-3.53,24.74-36.61,25.3-60.07,27.7
			c0.99-14.56-0.14-37.46,11.31-47.78C347.53,374.94,366.33,377.48,384.99,367.59"/>
		<path class="st2" d="M264.85,427.52c-0.42,12.58-3.53,12.86,0,37.6c3.53,24.74,36.61,25.16,60.07,27.7
			c-0.85-14.56-0.57-39.01-12.01-49.33C301.6,433.32,283.5,437.41,264.85,427.52"/>
		<path class="st2" d="M384.99,427.52c0.42,12.58,3.53,12.86,0,37.6c-3.53,24.74-36.61,25.16-60.07,27.7
			c0.99-14.56-0.14-37.46,11.31-47.78C347.53,434.73,366.33,437.41,384.99,427.52"/>
	</g>
	<path class="st1" d="M324.92,562.64c-3.62,0-6.46-1.87-6.46-4.06v-51.31c0-2.27,2.97-4.06,6.46-4.06c3.62,0,6.46,1.87,6.46,4.06
		v51.31C331.38,560.86,328.53,562.64,324.92,562.64"/>
</g>
</svg>
