<?xml version="1.0" encoding="UTF-8"?>
<svg xmlns="http://www.w3.org/2000/svg" version="1.1" viewBox="0 0 211.1 282.1">
  <defs>
    <style>
      .cls-1 {
        fill: #008237;
      }

      .cls-2 {
        fill: #ffed00;
      }
    </style>
  </defs>
  <!-- Generator: Adobe Illustrator 28.7.1, SVG Export Plug-In . SVG Version: 1.2.0 Build 142)  -->
  <g>
    <g id="Ebene_1">
      <g id="Plain_Logos">
        <g id="Vegan_x5F_NoBorder">
          <path id="Circle_BG" class="cls-2" d="M105.5,211c57.7,0,104.7-47.1,104.7-104.7S163.2,1.6,105.5,1.6c-57.6,0-104.7,47-104.7,104.7s47.1,104.7,104.7,104.7"/>
          <g>
            <path class="cls-1" d="M21.3,98.5l-.2,2.2-13.4,4.4.2-2.9,9.3-3-8.8-4.4.2-2.9,12.6,6.4Z"/>
            <path class="cls-1" d="M19.1,90.6l-2.2-.5,1.1-5.2,2.2.5-1.1,5.2Z"/>
            <path class="cls-1" d="M12,77.8l.9-2.6,9.9,3.5,2.1-6.1,2.4.8-3.1,8.7-12.3-4.3Z"/>
            <path class="cls-1" d="M29.6,68.7l-1.4,2.5-8.7-11.1,1.1-2,14.1,1.5-1.4,2.5-2.5-.3-2.7,5,1.5,1.9ZM28.1,61.5l-4.7-.5,2.9,3.7,1.7-3.1Z"/>
            <path class="cls-1" d="M40.5,52.2l-4.2,5.2-10.2-8.2,4-5c.7-.9,1.6-1.5,2.7-1.6,1-.2,1.9,0,2.7.7.8.7,1.3,1.5,1.3,2.6,1.3-.5,2.5-.3,3.5.6.8.7,1.3,1.6,1.3,2.7,0,1.1-.3,2.1-1.1,3ZM32.1,45.9l-2.2,2.8,2,1.6,2.2-2.8c.2-.3.3-.5.3-.9,0-.3-.1-.6-.4-.8,0,0,0,0-.1-.1-.3-.2-.6-.3-1-.3-.4,0-.6.2-.9.5ZM36.2,48.8l-2.5,3.1,2.3,1.8,2.5-3.1c.2-.3.3-.7.3-1.1,0-.4-.2-.7-.5-1s-.7-.4-1.1-.3c-.4,0-.7.2-1,.5Z"/>
            <path class="cls-1" d="M36.9,36.7l7.2-6.5,1.7,1.9-5.2,4.6,1.8,2,4.4-3.9,1.7,1.9-4.4,3.9,1.9,2.1,5.2-4.7,1.7,1.9-7.3,6.5-8.7-9.7Z"/>
            <path class="cls-1" d="M48.6,26.9l2.3-1.5,5.8,8.8,5.4-3.5,1.4,2.1-7.7,5-7.1-10.9Z"/>
            <path class="cls-1" d="M74.4,27.6l-2.6,1.1-5-12.1,2.6-1.1,5,12.1Z"/>
            <path class="cls-1" d="M80.7,25.4l-2.6.7-3.3-12.6,2.4-.6,8.4,6.4-2.1-8,2.6-.7,3.3,12.6-2.3.6-8.4-6.4,2.1,8Z"/>
            <path class="cls-1" d="M95.3,11.8l-4.1.4-.2-2.5,11-1,.2,2.5-4.1.4,1,10.5-2.7.2-1-10.5Z"/>
            <path class="cls-1" d="M106.8,8.6l9.7.6-.2,2.6-6.9-.4-.2,2.6,5.9.4-.2,2.5-5.9-.4-.2,2.8,7,.4-.2,2.5-9.8-.6.8-13Z"/>
            <path class="cls-1" d="M122.2,9.9l5.9,1.4c1.3.3,2.3.9,2.9,1.9.7,1,.9,2.1.6,3.3-.2.8-.6,1.5-1.1,2.1-.6.6-1.3.9-2.1,1.1l1.7,5.4-3-.7-1.6-4.9-2.7-.6-1,4.3-2.7-.6,2.9-12.7ZM127.5,13.8l-3.2-.7-.8,3.5,3.2.7c.5.1,1,0,1.4-.2s.7-.6.8-1.1c.1-.5,0-.9-.2-1.4-.2-.4-.6-.7-1.1-.8Z"/>
            <path class="cls-1" d="M135.5,27.1l-2.4-1,5.1-12,2.3,1,2.7,10.2,3.2-7.7,2.4,1-5.1,12-2.2-1-2.8-10.2-3.2,7.6Z"/>
            <path class="cls-1" d="M148.6,33.4l-2.4-1.6,11.8-7.9,1.9,1.2-2.5,14-2.4-1.6.5-2.4-4.7-3.1-2.1,1.4ZM155.9,32.4l.9-4.6-3.9,2.6,3,2Z"/>
            <path class="cls-1" d="M167.6,34.3l-3.1-2.8,1.7-1.9,8.3,7.4-1.7,1.9-3.1-2.8-7,7.8-2.1-1.8,7-7.9Z"/>
            <path class="cls-1" d="M169.6,51.1l-1.8-2.1,9.7-8.7,1.8,2.1-9.7,8.7Z"/>
            <path class="cls-1" d="M174.5,54.3c.4-1.8,1.3-3.2,2.9-4.3,1.6-1.1,3.3-1.4,5.1-1.1,1.8.4,3.3,1.4,4.3,3,1.1,1.6,1.4,3.3,1.1,5.1-.4,1.8-1.3,3.2-2.9,4.3-1.6,1.1-3.3,1.4-5.1,1.1-1.8-.3-3.2-1.3-4.3-3s-1.5-3.3-1.1-5.1ZM179.1,52.3c-1,.7-1.6,1.5-1.8,2.6s0,2.1.6,3c.6.9,1.5,1.5,2.6,1.7,1.1.2,2.1,0,3.1-.7.9-.6,1.6-1.5,1.8-2.6.2-1.1,0-2.1-.6-3-.6-1-1.5-1.5-2.6-1.7-1.1-.2-2.1,0-3.1.7Z"/>
            <path class="cls-1" d="M182.2,70.3l-1-2.4,12-5.1,1,2.3-5.1,9.2,7.6-3.2,1,2.4-12,5.1-.9-2.2,5.1-9.2-7.7,3.2Z"/>
            <path class="cls-1" d="M187.2,83.9l-.6-2.8,13.9,2.5.5,2.2-11.5,8.3-.6-2.8,2-1.4-1.2-5.5-2.5-.4ZM193.1,88.3l3.8-2.7-4.6-.8.8,3.5Z"/>
            <path class="cls-1" d="M202.7,96l.2,2.8-10.5.6.4,6.4-2.5.2-.6-9.2,13-.8Z"/>
          </g>
          <g>
            <path class="cls-1" d="M42.6,182.4l-1.8-1.5,4.4-13.9,2.3,1.9-3.2,9.6,9-4.7,2.3,1.9-13,6.7Z"/>
            <path class="cls-1" d="M50.2,184.1l1.3-1.9,4.5,3-1.3,1.9-4.5-3Z"/>
            <path class="cls-1" d="M62.4,180l2.5,1.3-5,9.7,5.9,3.1-1.2,2.3-8.4-4.4,6.2-12Z"/>
            <path class="cls-1" d="M70,198.6l-2.8-1,9.8-10.9,2.2.8,1.1,14.6-2.8-1-.2-2.6-5.6-1.9-1.7,1.9ZM77.1,195.7l-.3-4.8-3.2,3.6,3.5,1.2Z"/>
            <path class="cls-1" d="M90.3,203.9l-6.9-1.2,2.3-13.3,6.5,1.1c1.2.2,2.1.7,2.8,1.6.7.8.9,1.8.8,2.8-.2,1.1-.8,1.9-1.7,2.4,1.1.9,1.5,2.1,1.3,3.5-.2,1.1-.8,1.9-1.7,2.5-1,.6-2.1.8-3.3.5ZM91.2,198.3l-4-.7-.5,3,4,.7c.4,0,.8,0,1.1-.3.3-.2.5-.6.6-1s0-.8-.2-1.1c-.2-.3-.6-.5-1-.6ZM91.7,193.1l-3.6-.6-.4,2.7,3.6.6c.3,0,.7,0,.9-.2s.5-.4.6-.8c0,0,0,0,0-.2,0-.4,0-.7-.2-1-.2-.3-.5-.5-.9-.5Z"/>
            <path class="cls-1" d="M98.8,191.4l10,.2v2.6c0,0-7.2-.2-7.2-.2v2.7c0,0,6,.1,6,.1v2.6c0,0-6.1-.1-6.1-.1v2.9c0,0,7.2.2,7.2.2v2.6c0,0-10.2-.2-10.2-.2l.3-13.5Z"/>
            <path class="cls-1" d="M110.8,191.5l2.8-.3,1.2,10.8,6.6-.8.3,2.6-9.4,1.1-1.5-13.4Z"/>
            <path class="cls-1" d="M124.6,201.9c0-.4,0-.8.2-1.1.2-.3.5-.6,1-.6.4,0,.8,0,1.2.2.3.2.6.5.7,1,0,.4,0,.8-.2,1.2s-.6.6-1,.6c-.4,0-.8,0-1.1-.2-.3-.2-.6-.6-.7-1Z"/>
            <path class="cls-1" d="M132.4,187c1.3-.4,2.6-.5,3.9-.2s2.4.9,3.3,1.9l-2.3,1.8c-.6-.5-1.2-.8-1.9-1-.7-.2-1.4-.1-2.2.1-1.1.4-1.9,1.1-2.4,2.1-.5,1-.5,2.1-.2,3.2.4,1.1,1.1,2,2.1,2.5s2.1.6,3.2.2c.8-.2,1.4-.6,1.8-1.2s.8-1.2.9-1.9h2.9c-.2,1.4-.7,2.6-1.6,3.6s-2,1.7-3.3,2.2c-1.9.6-3.7.5-5.4-.3-1.7-.9-2.9-2.2-3.5-4.1-.6-1.9-.5-3.7.4-5.4.9-1.7,2.3-2.9,4.2-3.5Z"/>
            <path class="cls-1" d="M146.6,194.3c-1.8-.6-3.2-1.7-4.1-3.4-.9-1.7-1.1-3.5-.6-5.3.6-1.8,1.8-3.2,3.5-4.2,1.8-.9,3.6-1.1,5.4-.6,1.8.6,3.2,1.7,4.1,3.4.9,1.7,1.1,3.5.6,5.3-.6,1.8-1.7,3.2-3.5,4.1-1.8,1-3.6,1.2-5.4.6ZM145.1,189.5c.6,1.1,1.4,1.8,2.4,2.1,1.1.4,2.1.2,3.2-.3,1-.6,1.7-1.4,2-2.4.3-1.1.2-2.2-.4-3.2-.6-1.1-1.4-1.8-2.5-2.1-1.1-.4-2.1-.3-3.1.3-1.1.6-1.7,1.4-2,2.5-.3,1.1-.2,2.1.4,3.2Z"/>
            <path class="cls-1" d="M164,186l-2.2,1.8-8.5-10.5,2.2-1.8,8.8,3.5-1.5-9.4,2.2-1.8,8.5,10.5-2.2,1.8-5.2-6.4,1.3,7.6-1.5,1.2-7.1-2.9,5.1,6.3Z"/>
          </g>
          <path id="V-leaf" class="cls-1" d="M107.2,181.8s.8-4.2,1-6.1c1.7-10.9,2.8-22,5.6-32.7,3.3-12.2,6.8-25.3,12.6-36.6,1.1-1.7,2.7-5.1,5.3-5,6.6-.5,13.2-2.7,18.6-6.6,4-3,7.2-6.3,9.4-10.8,1.7-4.6,2.5-9.1,2.4-13.9,0-4.4.8-8.4,2.5-12.5.4-1.1.8-2.2.7-3.4-2.5-.3-5.7,1.9-8.1,2.7-5.5,1.8-11.5,2.6-17.1,3.7-4.6.8-8.8,2.1-12.6,4.9-6.2,4.4-9.3,9.8-11.6,17-1,4.1-1.8,8.8-1.5,12.9l.2.5c1.1-.3,2.9-3.6,3.5-4.5,3.7-5.8,7.4-10.9,13-15.2.9-.6,6.2-3.5,6.9-2,0,1.9-3.1,4.5-4.3,6-10.9,12.9-17.3,30.2-23.1,45.8-3.1,8.7-5.1,17.9-8.8,26.3-.2.3-.4.9-.8,1.1-1-1-1.6-3.4-2-4.8-1.7-5.9-3.1-12.1-4.8-18.1-4.2-15.7-9.1-34.1-18.7-47.6-7.4-9.7-17.3-20.8-29.1-25-.2,0-.5,0-.6,0-.4,1,.6,1.7,1.2,2.3,14.2,14.5,25.7,34.4,31.8,53.6,6.4,20.2,12.4,41.7,16,62.6.3,1.7.7,3.7,1.1,5.4,0,0,3.8.2,5.6.2,1.8,0,5.7-.2,5.7-.2"/>
          <path id="Registered" class="cls-1" d="M119.6,174.9h.8c.9,0,1.6-.3,1.6-1s-.5-1-1.4-1-.7,0-.9,0v2h0ZM119.6,178.7h-1.6v-6.8c.6-.1,1.5-.2,2.6-.2s1.9.2,2.4.5c.4.3.7.8.7,1.4s-.6,1.4-1.4,1.6h0c.7.3,1,.8,1.2,1.7.2,1,.3,1.4.5,1.7h-1.7c-.2-.2-.3-.8-.5-1.6-.1-.8-.5-1.1-1.4-1.1h-.8v2.7h0ZM120.6,169.8c-3,0-5.2,2.4-5.2,5.4s2.2,5.4,5.3,5.4c3,0,5.2-2.4,5.2-5.4s-2.2-5.4-5.2-5.4h0ZM120.7,168.4c3.9,0,6.9,3,6.9,6.8s-3,6.9-7,6.9-7-3-7-6.9,3.1-6.8,7-6.8h0Z"/>
          <path id="Dot_L" class="cls-1" d="M21,145.5c2.3,0,4.2-1.9,4.2-4.2s-1.9-4.2-4.2-4.2-4.2,1.9-4.2,4.2,1.9,4.2,4.2,4.2"/>
          <path id="Dot_R" class="cls-1" d="M190.6,145.5c2.3,0,4.2-1.9,4.2-4.2s-1.9-4.2-4.2-4.2-4.2,1.9-4.2,4.2c0,2.3,1.9,4.2,4.2,4.2"/>
          <path id="VEGAN_BG" class="cls-2" d="M5.7,226.4c-2.7,0-4.9,2.2-4.9,4.9v44.5c0,2.7,2.2,4.9,4.9,4.9h199.7c2.7,0,4.9-2.2,4.9-4.9v-44.5c0-2.7-2.2-4.9-4.9-4.9H5.7Z"/>
          <g>
            <path class="cls-1" d="M34.9,273h-6.5l-15.6-37.8h8.3l10.6,26.3,10.6-26.3h8.3l-15.6,37.8Z"/>
            <path class="cls-1" d="M53,235.2h27.8v7.4h-19.9v7.7h16.9v7.3h-16.9v8.1h20.2v7.3h-28.1v-37.8Z"/>
            <path class="cls-1" d="M83.6,254.1c0-5.6,1.9-10.3,5.7-14,3.8-3.7,8.6-5.6,14.2-5.6s7.4.9,10.6,2.9c3.2,1.9,5.6,4.6,7.2,7.8l-7.7,2.9c-1-1.8-2.3-3.3-4.2-4.3-1.8-1-3.8-1.6-6-1.6-3.3,0-6.1,1.1-8.3,3.4-2.2,2.3-3.3,5.1-3.3,8.4s1.1,6.2,3.2,8.5c2.2,2.3,4.8,3.4,8,3.4s4.6-.7,6.5-2c1.9-1.3,3.2-3.1,3.9-5.3h-11.4v-6.8h20.4c0,.2,0,.5,0,1,0,.5,0,.8,0,1,0,5.7-1.9,10.4-5.6,14.1-3.7,3.8-8.4,5.6-13.9,5.6s-10.2-1.9-13.9-5.6c-3.7-3.7-5.6-8.4-5.6-13.9Z"/>
            <path class="cls-1" d="M130.1,273h-8.3l15.9-37.8h6.5l15.9,37.8h-8.3l-2.7-6.7h-16.3l-2.7,6.7ZM146.2,259.1l-5.2-12.5-5.2,12.5h10.3Z"/>
            <path class="cls-1" d="M170.2,273h-7.6v-37.8h7.1l18.7,24.1v-24.1h7.6v37.8h-7l-18.7-24.1v24.1Z"/>
          </g>
        </g>
      </g>
    </g>
  </g>
</svg>