<?xml version="1.0" encoding="utf-8"?>
<!-- Generator: Adobe Illustrator 27.9.0, SVG Export Plug-In . SVG Version: 6.00 Build 0)  -->
<svg version="1.1" xmlns="http://www.w3.org/2000/svg" xmlns:xlink="http://www.w3.org/1999/xlink" x="0px" y="0px"
	 viewBox="0 0 211.05 282.13" style="enable-background:new 0 0 211.05 282.13;" xml:space="preserve">
<style type="text/css">
	.st0{fill:#FFED00;}
	.st1{fill:#008237;}
</style>
<g id="Plain_Logos">
	<g id="Vegan_x5F_NoBorder">
		<path id="Circle_BG_00000107565005818410025000000004069232717211739817_" class="st0" d="M105.52,210.99
			c57.68,0,104.71-47.06,104.71-104.71c0-57.68-47.03-104.71-104.71-104.71C47.87,1.57,0.81,48.6,0.81,106.28
			C0.81,163.93,47.87,210.99,105.52,210.99"/>
		<g>
			<path class="st1" d="M21.29,98.52l-0.18,2.25l-13.43,4.41l0.22-2.87l9.34-2.98l-8.77-4.37l0.22-2.87L21.29,98.52z"/>
			<path class="st1" d="M19.06,90.6l-2.16-0.46l1.09-5.16l2.16,0.46L19.06,90.6z"/>
			<path class="st1" d="M12.01,77.85l0.92-2.61l9.92,3.5l2.14-6.05l2.39,0.84l-3.06,8.66L12.01,77.85z"/>
			<path class="st1" d="M29.63,68.72l-1.39,2.52L19.5,60.09l1.09-1.98l14.09,1.48l-1.39,2.52l-2.47-0.28l-2.74,4.96L29.63,68.72z
				 M28.14,61.51l-4.66-0.52l2.92,3.67L28.14,61.51z"/>
			<path class="st1" d="M40.49,52.2l-4.22,5.24L26.1,49.26l3.99-4.95c0.74-0.91,1.62-1.46,2.66-1.63c1.02-0.19,1.92,0.04,2.73,0.68
				c0.83,0.67,1.26,1.53,1.27,2.59c1.31-0.45,2.48-0.26,3.51,0.57c0.84,0.68,1.28,1.56,1.32,2.65
				C41.61,50.24,41.24,51.26,40.49,52.2z M32.06,45.93l-2.23,2.77l2.03,1.64l2.23-2.77c0.21-0.26,0.31-0.55,0.3-0.86
				c-0.01-0.31-0.13-0.59-0.37-0.83c-0.01-0.03-0.06-0.07-0.14-0.14c-0.29-0.23-0.61-0.33-0.95-0.3
				C32.58,45.48,32.29,45.64,32.06,45.93z M36.21,48.79l-2.47,3.07l2.29,1.84l2.47-3.07c0.25-0.31,0.35-0.66,0.31-1.06
				c-0.05-0.39-0.23-0.72-0.55-0.98c-0.32-0.26-0.68-0.37-1.07-0.33C36.79,48.3,36.46,48.47,36.21,48.79z"/>
			<path class="st1" d="M36.9,36.69l7.21-6.46l1.7,1.9l-5.15,4.62l1.77,1.97l4.38-3.92l1.69,1.89l-4.38,3.92l1.86,2.07l5.23-4.68
				l1.69,1.89l-7.28,6.53L36.9,36.69z"/>
			<path class="st1" d="M48.6,26.85l2.31-1.51l5.75,8.81l5.37-3.51l1.38,2.12l-7.69,5.02L48.6,26.85z"/>
			<path class="st1" d="M74.41,27.61l-2.55,1.06l-5-12.05l2.55-1.06L74.41,27.61z"/>
			<path class="st1" d="M80.68,25.36l-2.56,0.68l-3.35-12.61l2.37-0.63l8.41,6.36l-2.14-8.03l2.56-0.68l3.35,12.61l-2.35,0.63
				l-8.43-6.36L80.68,25.36z"/>
			<path class="st1" d="M95.3,11.75l-4.14,0.38l-0.23-2.54l11.01-1.02l0.23,2.54l-4.14,0.38L99,21.95l-2.73,0.25L95.3,11.75z"/>
			<path class="st1" d="M106.79,8.56l9.67,0.58l-0.15,2.55l-6.91-0.42l-0.16,2.64l5.87,0.35l-0.15,2.53l-5.87-0.35l-0.17,2.78
				l7,0.42l-0.15,2.53l-9.76-0.59L106.79,8.56z"/>
			<path class="st1" d="M122.16,9.93l5.92,1.35c1.31,0.3,2.29,0.95,2.95,1.94c0.68,1,0.89,2.11,0.61,3.31
				c-0.19,0.82-0.57,1.51-1.14,2.07c-0.57,0.56-1.26,0.94-2.05,1.13l1.72,5.41l-3-0.68l-1.55-4.85l-2.7-0.62l-0.98,4.28l-2.7-0.62
				L122.16,9.93z M127.51,13.77l-3.22-0.74l-0.8,3.49l3.22,0.74c0.5,0.11,0.96,0.04,1.36-0.22c0.4-0.26,0.66-0.64,0.78-1.14
				c0.11-0.5,0.05-0.95-0.21-1.36C128.39,14.14,128.01,13.89,127.51,13.77z"/>
			<path class="st1" d="M135.54,27.13l-2.44-1.03l5.08-12.02l2.26,0.96l2.74,10.19l3.24-7.66l2.44,1.03l-5.08,12.02l-2.24-0.95
				l-2.76-10.19L135.54,27.13z"/>
			<path class="st1" d="M148.59,33.38l-2.41-1.58l11.77-7.89l1.89,1.24l-2.51,13.95l-2.41-1.58l0.47-2.44l-4.74-3.1L148.59,33.38z
				 M155.88,32.43l0.87-4.61l-3.87,2.64L155.88,32.43z"/>
			<path class="st1" d="M167.65,34.31l-3.11-2.76l1.7-1.91l8.26,7.35l-1.7,1.91l-3.11-2.76l-6.98,7.84l-2.05-1.82L167.65,34.31z"/>
			<path class="st1" d="M169.6,51.07L167.76,49l9.74-8.68l1.84,2.06L169.6,51.07z"/>
			<path class="st1" d="M174.53,54.26c0.36-1.81,1.33-3.24,2.91-4.3c1.58-1.06,3.28-1.41,5.09-1.06c1.82,0.38,3.27,1.37,4.34,2.98
				c1.08,1.62,1.45,3.33,1.09,5.13c-0.36,1.81-1.33,3.24-2.91,4.3c-1.58,1.06-3.28,1.41-5.09,1.06c-1.79-0.35-3.23-1.34-4.32-2.97
				S174.18,56.06,174.53,54.26z M179.06,52.34c-0.97,0.65-1.58,1.51-1.82,2.57c-0.24,1.06-0.04,2.06,0.6,3.02
				c0.63,0.94,1.48,1.5,2.55,1.69c1.09,0.19,2.11-0.04,3.08-0.69c0.95-0.64,1.55-1.5,1.79-2.57c0.24-1.06,0.04-2.06-0.59-3
				c-0.64-0.95-1.49-1.52-2.56-1.7C181.04,51.47,180.02,51.7,179.06,52.34z"/>
			<path class="st1" d="M182.17,70.35l-1.04-2.44l12.01-5.1l0.96,2.26l-5.11,9.23l7.65-3.25l1.04,2.44l-12.01,5.1l-0.95-2.24
				l5.1-9.25L182.17,70.35z"/>
			<path class="st1" d="M187.19,83.92l-0.63-2.81l13.94,2.52l0.5,2.21l-11.51,8.26l-0.63-2.81l2.04-1.43l-1.25-5.53L187.19,83.92z
				 M193.1,88.31l3.83-2.71l-4.62-0.8L193.1,88.31z"/>
			<path class="st1" d="M202.71,96.03l0.17,2.76l-10.5,0.63l0.39,6.41l-2.53,0.15l-0.55-9.17L202.71,96.03z"/>
		</g>
		<g>
			<path class="st1" d="M42.58,182.42l-1.79-1.51l4.44-13.93l2.27,1.93l-3.16,9.64l8.98-4.71l2.27,1.93L42.58,182.42z"/>
			<path class="st1" d="M50.22,184.09l1.27-1.89l4.54,3.04l-1.27,1.89L50.22,184.09z"/>
			<path class="st1" d="M62.44,180.03l2.54,1.31l-5,9.66l5.9,3.05l-1.2,2.33l-8.44-4.36L62.44,180.03z"/>
			<path class="st1" d="M70.03,198.57l-2.82-0.96l9.76-10.94l2.22,0.75l1.07,14.62l-2.82-0.96l-0.16-2.57l-5.55-1.88L70.03,198.57z
				 M77.1,195.73l-0.32-4.84l-3.2,3.64L77.1,195.73z"/>
			<path class="st1" d="M90.3,203.9l-6.86-1.16l2.26-13.31l6.49,1.1c1.2,0.2,2.13,0.73,2.82,1.57c0.69,0.82,0.94,1.76,0.76,2.81
				c-0.19,1.09-0.75,1.91-1.69,2.45c1.07,0.95,1.49,2.11,1.26,3.46c-0.19,1.1-0.76,1.95-1.73,2.53
				C92.64,203.93,91.54,204.11,90.3,203.9z M91.23,198.32l-4.02-0.68l-0.51,3l4.02,0.68c0.41,0.07,0.78-0.02,1.11-0.26
				c0.33-0.24,0.53-0.57,0.6-0.99c0.07-0.42-0.01-0.8-0.24-1.14C91.96,198.59,91.64,198.39,91.23,198.32z M91.71,193.12l-3.63-0.62
				l-0.45,2.66l3.63,0.62c0.34,0.06,0.65,0,0.93-0.17c0.28-0.17,0.47-0.42,0.56-0.76c0.02-0.02,0.04-0.09,0.05-0.19
				c0.07-0.38-0.01-0.72-0.21-1.01C92.38,193.37,92.09,193.19,91.71,193.12z"/>
			<path class="st1" d="M98.75,191.43l10.02,0.22l-0.06,2.64l-7.16-0.16l-0.06,2.74l6.08,0.13l-0.06,2.62l-6.08-0.13l-0.06,2.88
				l7.26,0.16l-0.06,2.62l-10.12-0.22L98.75,191.43z"/>
			<path class="st1" d="M110.8,191.51l2.84-0.32l1.23,10.81l6.6-0.75l0.3,2.6l-9.44,1.07L110.8,191.51z"/>
			<path class="st1" d="M124.57,201.91c-0.09-0.42-0.02-0.8,0.2-1.14c0.22-0.34,0.54-0.56,0.96-0.64c0.43-0.09,0.82-0.03,1.16,0.19
				c0.34,0.22,0.56,0.54,0.65,0.96c0.09,0.43,0.03,0.82-0.19,1.16c-0.22,0.34-0.55,0.56-0.98,0.65c-0.42,0.09-0.8,0.02-1.14-0.2
				C124.88,202.66,124.66,202.34,124.57,201.91z"/>
			<path class="st1" d="M132.39,186.99c1.33-0.44,2.64-0.5,3.93-0.2c1.29,0.3,2.39,0.92,3.3,1.86l-2.31,1.83
				c-0.55-0.51-1.17-0.84-1.89-1c-0.71-0.16-1.44-0.12-2.19,0.13c-1.13,0.37-1.93,1.06-2.41,2.07c-0.48,1.01-0.54,2.09-0.16,3.23
				c0.38,1.15,1.06,2,2.05,2.53c0.99,0.53,2.05,0.61,3.17,0.25c0.75-0.24,1.36-0.64,1.84-1.19c0.48-0.55,0.79-1.19,0.93-1.92
				l2.94,0.11c-0.18,1.29-0.7,2.44-1.56,3.45c-0.86,1.01-1.96,1.73-3.29,2.16c-1.93,0.63-3.74,0.52-5.43-0.33
				c-1.7-0.86-2.85-2.23-3.47-4.1c-0.61-1.88-0.49-3.66,0.37-5.36C129.1,188.77,130.49,187.61,132.39,186.99z"/>
			<path class="st1" d="M146.61,194.33c-1.82-0.56-3.2-1.7-4.12-3.45c-0.93-1.74-1.11-3.52-0.56-5.34c0.58-1.83,1.75-3.22,3.52-4.16
				c1.78-0.95,3.58-1.14,5.4-0.59c1.82,0.56,3.2,1.7,4.12,3.45c0.93,1.74,1.11,3.52,0.56,5.34c-0.55,1.8-1.72,3.18-3.51,4.13
				C150.23,194.67,148.43,194.88,146.61,194.33z M145.11,189.47c0.57,1.07,1.39,1.78,2.45,2.14c1.07,0.35,2.12,0.25,3.17-0.3
				c1.04-0.55,1.7-1.37,2-2.45c0.31-1.1,0.18-2.18-0.39-3.24c-0.56-1.05-1.38-1.75-2.46-2.11c-1.07-0.35-2.12-0.26-3.15,0.3
				c-1.05,0.56-1.72,1.38-2.02,2.46C144.41,187.34,144.54,188.41,145.11,189.47z"/>
			<path class="st1" d="M163.99,186.04l-2.19,1.77l-8.49-10.49l2.19-1.77l8.81,3.47l-1.54-9.35l2.19-1.77l8.49,10.49l-2.19,1.77
				l-5.16-6.37l1.32,7.58l-1.46,1.18l-7.09-2.85L163.99,186.04z"/>
		</g>
		<path id="V-leaf_00000161592547538690875760000016495780611951522969_" class="st1" d="M107.18,181.76c0,0,0.75-4.21,1.02-6.09
			c1.74-10.91,2.82-22.02,5.59-32.71c3.29-12.24,6.81-25.26,12.57-36.64c1.06-1.74,2.75-5.09,5.26-4.96
			c6.58-0.51,13.22-2.65,18.62-6.61c4.03-2.97,7.2-6.32,9.45-10.83c1.73-4.56,2.47-9.05,2.45-13.95c0.07-4.41,0.76-8.39,2.47-12.47
			c0.37-1.12,0.81-2.22,0.73-3.43c-2.51-0.26-5.74,1.88-8.05,2.74c-5.47,1.82-11.47,2.62-17.1,3.71c-4.58,0.78-8.76,2.09-12.55,4.87
			c-6.21,4.4-9.32,9.83-11.64,17.04c-0.99,4.07-1.81,8.77-1.53,12.93l0.22,0.48c1.05-0.35,2.87-3.56,3.46-4.5
			c3.71-5.75,7.36-10.95,12.97-15.19c0.93-0.56,6.23-3.46,6.89-2.02c-0.09,1.88-3.12,4.5-4.34,6
			c-10.93,12.88-17.34,30.16-23.05,45.83c-3.14,8.67-5.1,17.86-8.79,26.26c-0.18,0.31-0.44,0.92-0.77,1.07
			c-1.02-1.01-1.6-3.45-2.02-4.8c-1.68-5.95-3.14-12.12-4.85-18.08c-4.17-15.73-9.12-34.14-18.72-47.58
			c-7.36-9.72-17.26-20.76-29.09-25c-0.15,0-0.45,0.01-0.6,0.01c-0.44,0.95,0.6,1.65,1.19,2.31c14.22,14.53,25.66,34.37,31.82,53.6
			c6.4,20.17,12.43,41.7,15.99,62.58c0.3,1.69,0.68,3.74,1.1,5.4c0,0,3.83,0.24,5.62,0.24C103.31,182,107.18,181.76,107.18,181.76"
			/>
		<path id="Registered" class="st1" d="M119.6,174.91h0.75c0.87,0,1.58-0.29,1.58-1c0-0.62-0.46-1.04-1.45-1.04
			c-0.42,0-0.71,0.04-0.87,0.08V174.91z M119.56,178.73h-1.58v-6.77c0.62-0.12,1.5-0.25,2.62-0.25c1.29,0,1.87,0.21,2.37,0.54
			c0.37,0.29,0.67,0.83,0.67,1.45c0,0.79-0.58,1.37-1.41,1.62v0.08c0.67,0.21,1.04,0.75,1.25,1.66c0.21,1.04,0.33,1.45,0.5,1.66
			h-1.7c-0.21-0.25-0.33-0.83-0.54-1.62c-0.12-0.75-0.54-1.08-1.41-1.08h-0.75V178.73z M120.6,169.76c-2.99,0-5.23,2.45-5.23,5.44
			c0,3.03,2.24,5.44,5.32,5.44c2.99,0.04,5.19-2.41,5.19-5.44c0-2.99-2.2-5.44-5.23-5.44H120.6z M120.68,168.39
			c3.9,0,6.94,3.03,6.94,6.81c0,3.86-3.03,6.85-6.98,6.85c-3.9,0-7.02-2.99-7.02-6.85c0-3.78,3.12-6.81,7.02-6.81H120.68z"/>
		<path id="Dot_L_00000092443233876301393720000002792635222228288423_" class="st1" d="M20.95,145.48c2.32,0,4.2-1.88,4.2-4.2
			c0-2.32-1.88-4.2-4.2-4.2s-4.2,1.88-4.2,4.2C16.75,143.6,18.63,145.48,20.95,145.48"/>
		<path id="Dot_R" class="st1" d="M190.63,145.48c2.32,0,4.2-1.88,4.2-4.2c0-2.32-1.88-4.2-4.2-4.2c-2.32,0-4.2,1.88-4.2,4.2
			C186.44,143.6,188.32,145.48,190.63,145.48"/>
		<path id="VEGAN_BG" class="st0" d="M5.68,226.37c-2.69,0-4.87,2.18-4.87,4.87v44.46c0,2.69,2.18,4.87,4.87,4.87h199.69
			c2.69,0,4.87-2.18,4.87-4.87v-44.46c0-2.69-2.18-4.87-4.87-4.87H5.68z"/>
		<g>
			<path class="st1" d="M34.91,272.97h-6.5L12.79,235.2h8.28l10.61,26.3l10.56-26.3h8.28L34.91,272.97z"/>
			<path class="st1" d="M53.03,235.2h27.84v7.39H60.98v7.67h16.89v7.33H60.98v8.06h20.17v7.33H53.03V235.2z"/>
			<path class="st1" d="M83.61,254.11c0-5.6,1.91-10.26,5.72-13.99c3.82-3.73,8.56-5.6,14.23-5.6c3.89,0,7.43,0.95,10.61,2.85
				c3.22,1.94,5.63,4.55,7.22,7.83l-7.67,2.85c-0.96-1.83-2.35-3.26-4.17-4.31c-1.82-1.04-3.82-1.57-6-1.57
				c-3.33,0-6.11,1.14-8.34,3.41c-2.22,2.28-3.33,5.09-3.33,8.45c0,3.36,1.06,6.19,3.17,8.51c2.15,2.28,4.82,3.41,8,3.41
				c2.41,0,4.57-0.66,6.5-1.99c1.93-1.32,3.24-3.09,3.95-5.29h-11.39v-6.83h20.39c0,0.19,0.03,0.53,0.08,1.03
				c0.06,0.5,0.08,0.83,0.08,0.98c-0.07,5.71-1.94,10.41-5.61,14.1c-3.74,3.77-8.37,5.65-13.89,5.65c-5.56,0-10.21-1.86-13.95-5.6
				C85.48,264.28,83.61,259.63,83.61,254.11z"/>
			<path class="st1" d="M130.1,272.97h-8.28l15.89-37.77h6.5l15.89,37.77h-8.28l-2.72-6.66h-16.28L130.1,272.97z M146.16,259.09
				l-5.17-12.54l-5.17,12.54H146.16z"/>
			<path class="st1" d="M170.19,272.97h-7.61V235.2h7.06l18.67,24.06V235.2h7.61v37.77h-7l-18.73-24.06V272.97z"/>
		</g>
	</g>
</g>
<g id="Info_Layer">
</g>
</svg>
